<?xml version="1.0" standalone="no"?>
<!DOCTYPE svg PUBLIC "-//W3C//DTD SVG 20010904//EN"
 "http://www.w3.org/TR/2001/REC-SVG-20010904/DTD/svg10.dtd">
<svg version="1.0" xmlns="http://www.w3.org/2000/svg"
 width="161.000000pt" height="161.000000pt" viewBox="0 0 161.000000 161.000000"
 preserveAspectRatio="xMidYMid meet">

<g transform="translate(0.000000,161.000000) scale(0.100000,-0.100000)"
fill="#000000" stroke="none">
<path d="M535 1576 c-213 -67 -373 -282 -436 -581 -16 -76 -16 -301 0 -382 90
-460 439 -708 769 -547 156 76 272 236 334 461 19 68 22 104 22 278 0 174 -3
210 -22 278 -46 165 -137 298 -216 312 -43 9 -94 0 -120 -20 -18 -14 -18 -16
12 -62 41 -65 68 -129 92 -223 95 -372 -12 -814 -224 -922 -62 -32 -149 -22
-211 22 -88 64 -163 202 -202 373 -26 113 -23 386 4 498 58 233 165 402 317
503 l39 26 -59 -1 c-32 0 -77 -6 -99 -13z"/>
<path d="M808 1571 c-201 -66 -358 -268 -412 -531 -59 -287 0 -624 133 -763
47 -50 80 -67 131 -67 36 0 100 22 100 35 0 3 -13 24 -30 46 -36 50 -85 174
-107 272 -24 106 -24 365 0 477 67 310 241 479 412 401 90 -41 183 -185 225
-349 65 -260 40 -542 -71 -770 -40 -82 -65 -119 -124 -181 -41 -43 -90 -86
-110 -97 -19 -10 -35 -22 -35 -27 0 -10 82 -1 145 15 191 49 358 248 426 508
31 118 38 331 15 454 -50 265 -193 476 -382 563 -79 36 -228 43 -316 14z"/>
</g>
</svg>
