<?xml version="1.0" encoding="UTF-8"?>
<svg version="1.1" xmlns="http://www.w3.org/2000/svg" width="215" height="215">
<path d="M0 0 C1.24523437 0.00902344 2.49046875 0.01804688 3.7734375 0.02734375 C5.18496094 0.04474609 5.18496094 0.04474609 6.625 0.0625 C3.03940896 3.87941949 -0.8249608 7.05495685 -4.99609375 10.21875 C-25.95871118 26.46563904 -38.08564882 53.24820837 -41.84765625 79.1875 C-45.88598566 112.57291573 -44.51767955 150.07848809 -23.25 177.8359375 C-17.12091736 185.09294159 -10.32681165 190.45669927 -0.640625 191.30078125 C6.17977808 191.46864091 10.99028067 191.01273481 16.625 187.0625 C17.26824219 186.62292969 17.91148438 186.18335938 18.57421875 185.73046875 C28.46309982 178.05638619 34.53908864 165.62152804 38.625 154.0625 C38.98207031 153.07121094 39.33914062 152.07992187 39.70703125 151.05859375 C50.26295624 119.46988938 49.73305896 80.18859404 35.953125 49.70703125 C34.05400378 45.92554577 32.05706516 42.20883034 29.95703125 38.53515625 C28.64323381 36.09634752 27.60246709 33.65209292 26.625 31.0625 C29.57972477 27.64123974 32.77419754 26.30042079 37.23828125 25.7265625 C44.89146395 25.61580732 49.93158904 26.68994521 55.6484375 31.91015625 C78.78446456 56.33151815 78.06537233 88.70280941 77.625 120.0625 C77.61774902 120.81225098 77.61049805 121.56200195 77.60302734 122.33447266 C77.21362508 148.06802238 65.2390999 174.67973905 47.09423828 192.66210938 C33.61026441 205.51423203 16.90125663 211.68173977 -1.65234375 211.37890625 C-15.53567527 210.19889591 -27.72647025 204.85275691 -38.375 196.0625 C-39.45394531 195.20205078 -39.45394531 195.20205078 -40.5546875 194.32421875 C-60.88718751 177.33356563 -72.7399165 148.96788094 -75.17871094 122.96459961 C-77.58083767 87.44957414 -72.2462161 53.35015091 -49.0859375 25.2890625 C-36.19569333 10.53837072 -20.15440046 -0.19013585 0 0 Z " fill="#FFFFFF" transform="translate(86.375,1.9375)"/>
<path d="M0 0 C21.37325253 20.30625708 32.88101154 50.1165466 33.7421875 79.375 C33.76166886 81.64705526 33.76514002 83.91929525 33.75390625 86.19140625 C33.7482666 87.40425293 33.74262695 88.61709961 33.73681641 89.86669922 C33.34588803 119.34889198 26.13721347 148.70279838 5.44140625 170.75390625 C4.72339844 171.55054688 4.00539063 172.3471875 3.265625 173.16796875 C-7.25502996 184.34266087 -22.37578287 193.35379128 -38.0078125 193.8671875 C-41.19462302 193.8775231 -44.37314796 193.84252762 -47.55859375 193.75390625 C-44.39017428 190.47828461 -41.11668011 187.50137067 -37.59814453 184.60791016 C-14.11893207 165.20312583 -2.05398706 136.05496915 1.27587891 106.07495117 C3.63394779 73.00981719 0.20480411 37.15697004 -22.3125 11.0703125 C-28.40436023 4.78775056 -34.81904424 2.28053621 -43.55859375 1.75390625 C-52.19063973 2.07415079 -59.68816835 7.01433153 -65.75390625 12.875 C-83.77380411 33.8275479 -87.73310815 62.4353679 -87.74609375 89.00390625 C-87.76446289 90.95876953 -87.76446289 90.95876953 -87.78320312 92.953125 C-87.80181113 105.47010685 -86.66706843 117.70339323 -82.93359375 129.69140625 C-82.67852051 130.52623535 -82.42344727 131.36106445 -82.16064453 132.22119141 C-79.13592611 141.68400769 -75.00500997 150.88219247 -69.25390625 159.01171875 C-68.69445312 159.91664063 -68.135 160.8215625 -67.55859375 161.75390625 C-68.55859375 164.75390625 -68.55859375 164.75390625 -71.93359375 166.44140625 C-77.70680717 168.37615698 -83.96774587 169.13156725 -89.7578125 166.91015625 C-91.87632804 165.67817079 -93.68361716 164.33181865 -95.55859375 162.75390625 C-96.56019531 161.91666016 -96.56019531 161.91666016 -97.58203125 161.0625 C-114.10723412 145.89856863 -119.06157736 120.37853625 -120.4296875 98.8671875 C-120.47222656 97.83980469 -120.51476562 96.81242187 -120.55859375 95.75390625 C-120.61144531 94.53058594 -120.66429687 93.30726562 -120.71875 92.046875 C-121.54862543 62.69136743 -114.77871978 33.17505008 -96.55859375 9.75390625 C-95.97335938 8.99722656 -95.388125 8.24054687 -94.78515625 7.4609375 C-85.155984 -4.2251706 -68.83850924 -15.25554165 -53.37109375 -16.87109375 C-32.52298135 -18.78856228 -15.82748123 -13.89435375 0 0 Z " fill="#FFFFFF" transform="translate(169.55859375,19.24609375)"/>
</svg>
